# AST/ASF file generated using VICON BodyLanguage
# -----------------------------------------------
:version 1.10
:name VICON
:units
  mass 1.0
  length 0.45
  angle deg
:documentation
   .ast/.asf automatically generated from VICON data using
   VICON BodyBuilder and BodyLanguage model FoxedUp or BRILLIANT.MOD
:root
   order TX TY TZ RX RY RZ
   axis XYZ
   position 0 0 0  
   orientation 0 0 0 
:bonedata
  begin
     id 1 
     name lhipjoint
     direction 0.566809 -0.746272 0.349008 
     length 2.40479 
     axis 0 0 0  XYZ
  end
  begin
     id 2 
     name lfemur
     direction 0.34202 -0.939693 0  
     length 7.1578  
     axis 0 0 20  XYZ
    dof rx ry rz
    limits (-160.0 20.0)
           (-70.0 70.0)
           (-60.0 70.0)
  end
  begin
     id 3 
     name ltibia
     direction 0.34202 -0.939693 0   
     length 7.49137   
     axis 0 0 20   XYZ
    dof rx
    limits (-10.0 170.0)
  end
  begin
     id 4 
     name lfoot
     direction 0.0665746 -0.182912 0.980873   
     length 2.36784   
     axis -90 7.62852e-016 20   XYZ
    dof rx rz
    limits (-45.0 90.0)
           (-70.0 20.0)
  end
  begin
     id 5 
     name ltoes
     direction 1.53601e-011 -4.22058e-011 1   
     length 1.18966   
     axis -90 7.62852e-016 20   XYZ
    dof rx
    limits (-90.0 20.0)
  end
  begin
     id 6 
     name rhipjoint
     direction -0.550236 -0.756381 0.353735   
     length 2.37265  
     axis 0 0 0  XYZ 
  end
  begin
     id 7 
     name rfemur
     direction -0.34202 -0.939693 0   
     length 7.43386   
     axis 0 0 -20   XYZ
    dof rx ry rz
    limits (-160.0 20.0)
           (-70.0 70.0)
           (-70.0 60.0)
  end
  begin
     id 8 
     name rtibia
     direction -0.34202 -0.939693 0   
     length 7.50908   
     axis 0 0 -20   XYZ
    dof rx
    limits (-10.0 170.0)
 end
 begin
     id 9 
     name rfoot
     direction -0.0683029 -0.187661 0.979856   
     length 2.41173  
     axis -90 -7.62852e-016 -20   XYZ
    dof rx rz
    limits (-45.0 90.0)
           (-20.0 70.0)
  end
  begin
     id 10 
     name rtoes
     direction -1.53528e-011 -4.21968e-011 1   
     length 1.21082   
     axis -90 -7.62852e-016 -20   XYZ
    dof rx
    limits (-90.0 20.0)
  end
  begin
     id 11 
     name lowerback
     direction 0.013823 0.995423 -0.0945635   
     length 2.04495   
     axis 0 0 0   XYZ
    dof rx ry rz
    limits (-20.0 45.0)
           (-30.0 30.0)
           (-30.0 30.0)
  end
  begin
     id 12 
     name upperback
     direction 0.0276657 0.9994 -0.020853   
     length 2.05008   
     axis 0 0 0   XYZ
    dof rx ry rz
    limits (-20.0 45.0)
           (-30.0 30.0)
           (-30.0 30.0)
  end
  begin
     id 13 
     name thorax
     direction 0.019782 0.999531 0.0233827   
     length 2.06488   
     axis 0 0 0   XYZ
    dof rx ry rz
    limits (-20.0 45.0)
           (-30.0 30.0)
           (-30.0 30.0)
  end
  begin
     id 14 
     name lowerneck
     direction -0.0308541 0.994709 0.0979874   
     length 1.75553   
     axis 0 0 0   XYZ
    dof rx ry rz
    limits (-20.0 45.0)
           (-30.0 30.0)
           (-30.0 30.0)
  end
  begin
     id 15 
     name upperneck
     direction 0.0588398 0.995804 -0.0700903   
     length 1.76878   
     axis 0 0 0   XYZ
    dof rx ry rz
    limits (-20.0 45.0)
           (-30.0 30.0)
           (-30.0 30.0)
  end
  begin
     id 16
     name head
     direction 0.0209966 0.999159 -0.0352225  
     length 1.77193  
     axis 0 0 0   XYZ
    dof rx ry rz
    limits (-20.0 45.0)
           (-30.0 30.0)
           (-30.0 30.0)
  end
  begin
     id 17 
     name lclavicle
     direction 0.938182 0.335073 -0.0868338  
     length 3.58396  
     axis 0 0 0   XYZ
    dof ry rz
    limits (-20.0 10.0)
           (0.0 20.0)
  end
  begin
     id 18 
     name lhumerus
     direction 1 -4.48971e-011 -1.26313e-017   
     length 4.983   
     axis 180 -30 -90   XYZ
    dof rx ry rz
    limits (-60.0 90.0)
           (-90.0 90.0)
           (-90.0 90.0)
  end
  begin
     id 19
     name lradius
     direction 1 -4.48948e-011 -5.89033e-027   
     length 3.48356   
     axis 180 -30 -90   XYZ
    dof rx
    limits (-10.0 170.0)
  end
  begin
     id 20
     name lwrist
     direction 1 -4.48977e-011 -1.48983e-026   
     length 1.74178   
     axis 9.0955e-015 90 90   XYZ
    dof ry
    limits (-180.0 0.0)
 end
  begin
     id 21 
     name lhand
     direction 1 -4.49046e-011 -2.98066e-026   
     length 0.715259   
     axis 1.90115e-014 90 90   XYZ
    dof rx rz
    limits (-90.0 90.0)
           (-45.0 45.0)
  end
  begin
     id 22 
     name lfingers
     direction 1 -4.48907e-011 -5.95731e-026   
     length 0.576661   
     axis 3.80223e-014 90 90   XYZ
    dof rx
    limits (0.0 90.0)
  end
  begin
     id 23
     name lthumb
     direction 0.707107 -6.34963e-011 0.707107   
     length 0.827973   
     axis -90 45 -3.84942e-014   XYZ
    dof rx rz
    limits (-45.0 45.0)
           (-45.0 45.0)
  end
  begin
     id 24 
     name rclavicle
     direction -0.909637 0.398485 -0.11735   
     length 3.44819  
     axis 0 0 0   XYZ 
    dof ry rz
    limits (-10.0 20.0)
           (-20.0 0.0)
  end
  begin
     id 25 
     name rhumerus
     direction -1 -4.48978e-011 -1.09333e-027  
     length 5.2419   
     axis 180 30 90   XYZ
    dof rx ry rz
    limits (-90.0 60.0)
           (-90.0 90.0)
           (-90.0 90.0)
  end
  begin
     id 26 
     name rradius
     direction -1 -4.48953e-011 -7.61841e-027   
     length 3.44417   
     axis 180 30 90   XYZ
    dof rx
    limits (-10.0 170.0)
  end
  begin
     id 27 
     name rwrist
     direction -1 -4.48977e-011 -1.48983e-026   
     length 1.72209   
     axis 9.0955e-015 -90 -90   XYZ
    dof ry
    limits (-180.0 0.0)
  end
  begin
     id 28
     name rhand
     direction -1 -4.49027e-011 -2.98038e-026   
     length 0.622529   
     axis 1.90115e-014 -90 -90   XYZ
    dof rx rz
    limits (-90.0 90.0)
           (-45.0 45.0)
  end
  begin
     id 29
     name rfingers
     direction -1 -4.48838e-011 -5.95531e-026   
     length 0.501899   
     axis 3.80223e-014 -90 -90   XYZ
    dof rx
    limits (0.0 90.0)
  end
  begin
     id 30
     name rthumb
     direction -0.707107 -6.34937e-011 0.707107   
     length 0.720629   
     axis -90 -45 3.84942e-014   XYZ
    dof rx rz
    limits (-45.0 45.0)
           (-45.0 45.0)
  end
:hierarchy
  begin
    root lhipjoint rhipjoint lowerback
    lhipjoint lfemur
    lfemur ltibia
    ltibia lfoot
    lfoot ltoes
    rhipjoint rfemur
    rfemur rtibia
    rtibia rfoot
    rfoot rtoes
    lowerback upperback
    upperback thorax
    thorax lowerneck lclavicle rclavicle
    lowerneck upperneck
    upperneck head
    lclavicle lhumerus
    lhumerus lradius
    lradius lwrist
    lwrist lhand lthumb
    lhand lfingers
    rclavicle rhumerus
    rhumerus rradius
    rradius rwrist
    rwrist rhand rthumb
    rhand rfingers
  end

#!OML:ASF F:\VICON\USERDATA\Patient Classification 1\PLAYGROUND\JustinFriday\JustinFriday.ASF
:FULLY-SPECIFIED
:DEGREES
705
root -20.3015 29.7352 -9.00463 234.398 83.9344 -144.4
lowerback 27.505 0.128754 -1.3312
upperback 11.2229 1.05265 2.11845
thorax -2.73315 0.855298 2.75349
lowerneck 6.99521 -22.2597 -3.85282
upperneck -35.9441 -24.5067 31.5408
head -7.1829 -14.865 12.5892
rclavicle 1.1778e-014 1.58034e-014
rhumerus 38.1375 12.2082 -65.1207
rradius 47.5692
rwrist 12.7227
rhand -11.696 -15.7998
rfingers 7.12502
rthumb 14.35 -45.2838
lclavicle 1.1778e-014 1.58034e-014
lhumerus 45.5175 -19.7647 52.7262
lradius 33.0821
lwrist -19.5838
lhand -32.7573 -29.8184
lfingers 7.12502
lthumb -5.97987 0.0772305
rfemur -43.869 2.75939 27.4543
rtibia 42.123
rfoot -38.4963 -11.8265
rtoes 17.3626
lfemur -42.7934 9.10708 -20.8931
ltibia 36.1854
lfoot -39.5357 -4.60601
ltoes -4.64936
706
root -20.2733 29.7131 -9.10385 233.292 83.4039 -145.268
lowerback 27.7685 -0.692317 0.508162
upperback 11.258 0.479864 1.95173
thorax -2.78614 0.639848 1.67961
lowerneck 7.54359 -22.2886 -4.64507
upperneck -36.2739 -24.525 32.2595
head -7.11215 -14.9239 12.9877
rclavicle -1.90833e-014 -1.27222e-014
rhumerus 38.0407 12.5859 -64.2153
rradius 47.7478
rwrist 12.0739
rhand -11.6733 -14.9138
rfingers 7.12502
rthumb 14.3719 -44.3963
lclavicle -1.90833e-014 -1.27222e-014
lhumerus 45.2871 -19.5133 52.5986
lradius 33.4679
lwrist -19.8911
lhand -31.7856 -26.4282
lfingers 7.12502
lthumb -5.04171 3.49178
rfemur -43.5678 1.58651 27.9298
rtibia 42.1912
rfoot -38.3826 -12.1048
rtoes 15.4943
lfemur -42.5618 11.0057 -21.8654
ltibia 35.9414
lfoot -40.2294 -4.8499
ltoes -8.8965
707
root -20.279 29.745 -9.09146 235.962 83.8653 -141.956
lowerback 28.771 -0.61725 -0.632292
upperback 11.3211 0.36181 2.45958
thorax -3.17102 0.549984 2.93159
lowerneck 7.74689 -22.1995 -5.67496
upperneck -36.5082 -24.6994 31.9293
head -7.07308 -14.8605 13.0032
rclavicle 2.5842e-015 1.54555e-014
rhumerus 38.7423 14.2976 -62.7116
rradius 47.7685
rwrist 11.4074
rhand -11.7788 -14.5323
rfingers 7.12502
rthumb 14.2701 -44.022
lclavicle 2.5842e-015 1.54555e-014
lhumerus 43.8757 -18.1404 53.7846
lradius 33.1759
lwrist -18.764
lhand -31.9621 -28.4666
lfingers 7.12502
lthumb -5.2121 1.44931
rfemur -42.8676 2.13579 27.6622
rtibia 42.2755
rfoot -38.2457 -12.8498
rtoes 14.4873
lfemur -40.9572 7.53851 -20.344
ltibia 35.5626
lfoot -40.3245 1.25649
ltoes -12.2303
708
root -20.2798 29.7737 -9.0966 237.899 84.1928 -140.311
lowerback 28.3841 -0.69289 -0.18747
upperback 11.4079 0.351267 2.19604
thorax -2.89728 0.558711 2.38704
lowerneck 7.29109 -22.3435 -6.56768
upperneck -35.876 -25.064 32.4321
head -6.4606 -14.9918 12.9575
rclavicle 2.23633e-014 1.2424e-014
rhumerus 39.1633 14.3181 -62.4175
rradius 47.4685
rwrist 11.191
rhand -11.8191 -14.6903
rfingers 7.12502
rthumb 14.2314 -44.1828
lclavicle 2.23633e-014 1.2424e-014
lhumerus 44.0937 -19.2 51.9496
lradius 34.5553
lwrist -16.127
lhand -31.7694 -24.2723
lfingers 7.12502
lthumb -5.02607 5.64807
rfemur -43.0926 2.40466 27.4205
rtibia 42.1346
rfoot -38.0837 -12.721
rtoes 15.1914
lfemur -41.5269 9.58227 -20.7766
ltibia 35.3427
lfoot -38.4763 -12.1189
ltoes 11.2235
709
root -20.2683 29.7462 -9.09611 237.171 84.0637 -141.421
lowerback 27.9259 -0.677932 -0.00548068
upperback 11.3978 0.391945 2.11027
thorax -2.69944 0.580409 2.17508
lowerneck 9.29012 -20.6455 -5.64133
upperneck -36.9674 -22.2435 31.9606
head -8.01004 -13.7493 13.7093
rclavicle 4.07509e-015 3.42904e-015
rhumerus 39.236 14.0241 -62.4984
rradius 47.1317
rwrist 11.3121
rhand -11.6065 -14.5683
rfingers 7.12502
rthumb 14.4362 -44.0462
lclavicle 4.07509e-015 3.42904e-015
lhumerus 44.5682 -20.2711 49.851
lradius 35.6993
lwrist -13.9782
lhand -30.0309 -21.0257
lfingers 7.12502
lthumb -3.34733 8.92774
rfemur -43.4643 2.40297 27.522
rtibia 42.0915
rfoot -37.9293 -12.943
rtoes 15.0634
lfemur -41.5165 9.02541 -21.1621
ltibia 34.8563
lfoot -39.9995 -0.963371
ltoes -10.0714
710
root -20.2514 29.8006 -9.12446 234.923 83.5837 -143.515
lowerback 27.9914 -0.725209 0.441865
upperback 11.4884 0.458179 2.01195
thorax -2.63102 0.636296 1.79157
lowerneck 9.7906 -20.541 -4.8091
upperneck -36.8722 -21.7041 32.6141
head -8.21613 -13.7122 14.0047
rclavicle -2.04251e-014 -9.49197e-015
rhumerus 39.108 13.4579 -62.7725
rradius 46.9352
rwrist 11.3999
rhand -11.0199 -14.9884
rfingers 7.12502
rthumb 15.0013 -44.425
lclavicle -2.04251e-014 -9.49197e-015
lhumerus 45.2053 -21.0924 48.2177
lradius 36.5565
lwrist -12.7808
lhand -26.9701 -18.6026
lfingers 7.12502
lthumb -0.391206 11.3767
rfemur -43.0808 1.90749 27.795
rtibia 42.0282
rfoot -38.0206 -13.0094
rtoes 14.6834
lfemur -41.0381 7.16829 -19.8585
ltibia 34.6637
lfoot -39.3809 -6.14839
ltoes 3.02949
711
root -20.2382 29.822 -9.16958 231.698 83.8073 -146.783
lowerback 27.7334 -0.932891 0.678509
upperback 11.6417 0.245602 1.75895
thorax -2.33404 0.551202 1.44162
lowerneck 10.1125 -20.5128 -4.24489
upperneck -37.163 -21.6557 32.0132
head -8.59138 -13.6766 13.8884
rclavicle 5.71506e-015 -2.55438e-014
rhumerus 39.5502 13.6013 -62.7078
rradius 46.6509
rwrist 11.4064
rhand -10.5647 -15.429
rfingers 7.12502
rthumb 15.4398 -44.8324
lclavicle 5.71506e-015 -2.55438e-014
lhumerus 45.2572 -21.7758 46.0254
lradius 38.3254
lwrist -10.3502
lhand -24.277 -16.8036
lfingers 7.12502
lthumb 2.20987 13.1647
rfemur -43.1769 1.41839 27.3156
rtibia 42.2241
rfoot -38.1929 -12.2771
rtoes 15.3044
lfemur -40.8366 6.93973 -20.4615
ltibia 34.3263
lfoot -39.2229 -5.42435
ltoes 2.07996
712
root -20.2442 29.8 -9.16092 237.186 84.6685 -141.69
lowerback 27.5991 -0.754551 0.291677
upperback 11.6809 0.354135 1.68604
thorax -2.22949 0.587119 1.55322
lowerneck 7.99026 -22.0298 -5.59602
upperneck -35.775 -24.4569 32.3599
head -6.85585 -14.8431 13.0818
rclavicle 2.65378e-014 4.15957e-014
rhumerus 39.019 14.5896 -59.7582
rradius 48.7924
rwrist 9.15682
rhand -10.2115 -16.1094
rfingers 7.12502
rthumb 15.7799 -45.4862
lclavicle 2.65378e-014 4.15957e-014
lhumerus 44.7095 -22.6773 42.3242
lradius 41.7288
lwrist -6.03683
lhand -22.1706 -14.0306
lfingers 7.12502
lthumb 4.24404 15.9069
rfemur -43.7819 2.25845 26.8783
rtibia 42.2951
rfoot -38.038 -11.4785
rtoes 16.466
lfemur -41.2403 7.90274 -21.2117
ltibia 34.2154
lfoot -39.2877 -2.04608
ltoes -4.65469
713
root -20.2389 29.7837 -9.17559 239.937 84.9347 -139.274
lowerback 27.6666 -0.893834 0.452496
upperback 11.6731 0.213224 1.67726
thorax -2.26632 0.521172 1.4917
lowerneck 7.14276 -21.9455 -7.22897
upperneck -34.8227 -24.6128 33.0906
head -5.94543 -14.7996 13.0678
rclavicle -9.64106e-015 1.03865e-014
rhumerus 39.884 15.8256 -57.8802
rradius 49.562
rwrist 7.90694
rhand -9.5592 -17.8822
rfingers 7.12502
rthumb 16.4081 -47.2082
lclavicle -9.64106e-015 1.03865e-014
lhumerus 44.9739 -20.0402 46.2391
lradius 38.1548
lwrist -9.50637
lhand -19.9571 -14.9267
lfingers 7.12502
lthumb 6.38123 14.9572
rfemur -44.2235 2.35623 26.8226
rtibia 42.4247
rfoot -37.9016 -11.3445
rtoes 16.2182
lfemur -41.5681 8.27194 -21.5398
ltibia 34.156
lfoot -39.1848 -0.85751
ltoes -7.08086
